inDegrees=yes
name=ik_S57_A08_T01
DataType=double
version=3
OpenSimVersion=4.3-2021-08-27-4bc7ad9
endheader
time	pelvis_tilt	pelvis_list	pelvis_rotation	pelvis_tx	pelvis_ty	pelvis_tz	hip_flexion_r	hip_adduction_r	hip_rotation_r	knee_angle_r	knee_angle_r_beta	ankle_angle_r	subtalar_angle_r	mtp_angle_r	hip_flexion_l	hip_adduction_l	hip_rotation_l	knee_angle_l	knee_angle_l_beta	ankle_angle_l	subtalar_angle_l	mtp_angle_l	lumbar_extension	lumbar_bending	lumbar_rotation	arm_flex_r	arm_add_r	arm_rot_r	elbow_flex_r	pro_sup_r	wrist_flex_r	wrist_dev_r	arm_flex_l	arm_add_l	arm_rot_l	elbow_flex_l	pro_sup_l	wrist_flex_l	wrist_dev_l
6.139999999999957	-6.777135706289605	-3.431625956855527	22.91960193793037	0	0.9399999999999999	0	33.00861236981204	-10.79275176273334	-9.710589804977197	38.13433440835739	0.6655696934824002	0	0	0	33.00861236981204	-10.79275176273334	-9.710589804977197	38.13433440835739	0.6655696934824002	0	0	0	-6.937750382989545	-2.650048069083085	0.7531673604198509	21.34771390463438	-0.2287823125874548	3.132770449014	44.32924847038129	133.250578610158	0	0	63.54815694124721	-13.39432341742604	26.6436606085325	47.14281112158429	70.49527361427032	0	0
6.159999999999957	-6.769129699537081	-3.434281179840194	22.8680238996508	0	0.9399999999999999	0	33.0448138951606	-10.78591999937756	-9.712327894776406	38.17071340459479	0.6662046267453136	0	0	0	33.0448138951606	-10.78591999937756	-9.712327894776406	38.17071340459479	0.6662046267453136	0	0	0	-6.932541346694808	-2.651382729216988	0.7556000019049257	21.34540822366853	-0.2122904742403892	3.125509457221148	44.30918728713434	133.3002034187853	0	0	63.40799502672672	-13.4448465076367	26.5687538331104	47.42448284334196	70.44679895407715	0	0
6.179999999999956	-6.724648749136083	-3.432964697145632	23.00368239895072	0	0.9399999999999999	0	33.05037508410805	-10.78468607707936	-9.712618469548172	38.17623031690788	0.6663009150297207	0	0	0	33.05037508410805	-10.78468607707936	-9.712618469548172	38.17623031690788	0.6663009150297207	0	0	0	-6.890269158410248	-2.669077149254483	0.7663257212697759	21.26965090706964	-0.1930563028431208	2.978236331317841	44.29359676142902	133.3164272587382	0	0	63.13549140895798	-13.33500561917119	26.42031922224283	48.22149088294885	70.6480361977268	0	0
6.199999999999956	-6.679209657967711	-3.425668677682847	23.11893279603047	0	0.9399999999999999	0	33.05551779269715	-10.7835442731752	-9.712887333092462	38.18132520053492	0.6663898375240186	0	0	0	33.05551779269715	-10.7835442731752	-9.712887333092462	38.18132520053492	0.6663898375240186	0	0	0	-6.845031615101706	-2.680023681729617	0.7676775498104201	21.13770901781051	-0.2080503093692431	2.84125559370127	44.3209504149865	133.3241157211482	0	0	62.85792284979828	-13.22002148330349	26.0844017151658	49.09969726568007	71.06279229834621	0	0
6.219999999999955	-6.640763135267567	-3.433157191649537	23.22316749517639	0	0.9399999999999999	0	33.06094536917717	-10.78233810925124	-9.713171310931525	38.18669308132615	0.66648352471768	0	0	0	33.06094536917717	-10.78233810925124	-9.713171310931525	38.18669308132615	0.66648352471768	0	0	0	-6.814238552447343	-2.697157292795558	0.7345361344722752	21.05934315949127	-0.1839964137695887	2.772775441453765	44.30189478347451	133.3484463327188	0	0	62.59482186270375	-13.16700918521335	25.63349695792948	50.18999025580374	71.62167299285537	0	0
6.239999999999955	-6.609777493370132	-3.44541999972383	23.37735773186731	0	0.9399999999999999	0	33.06512809516983	-10.78141064898413	-9.71338987776449	38.19083490431998	0.6665558131659574	0	0	0	33.06512809516983	-10.78141064898413	-9.71338987776449	38.19083490431998	0.6665558131659574	0	0	0	-6.79238049177077	-2.71714749004588	0.7072848824812422	20.99746968053988	-0.224632382190574	2.78329457294508	44.33698155671742	133.2428136234872	0	0	62.33288639660223	-13.08236189510119	25.27259789524562	51.48322964018428	72.28430659279925	0	0
6.259999999999954	-6.571035295323888	-3.458437520286414	23.54625892882758	0	0.9399999999999999	0	33.07034467937788	-10.7802655637076	-9.713660752309059	38.19604239978592	0.6666467011076205	0	0	0	33.07034467937788	-10.7802655637076	-9.713660752309059	38.19604239978592	0.6666467011076205	0	0	0	-6.766182140977109	-2.734248707268655	0.6345152830957455	20.90667494629388	-0.2398866810229522	2.766829979516626	44.36555049664662	133.2058080218466	0	0	62.03910832648396	-13.04701377253759	25.00412227531559	52.95089149055406	73.04189344102777	0	0
6.279999999999954	-6.5487765085174	-3.474527729529565	23.78812771265163	0	0.9399999999999999	0	33.07678294233985	-10.77885874122135	-9.713994123850235	38.20249156347558	0.6667592602480052	0	0	0	33.07678294233985	-10.77885874122135	-9.713994123850235	38.20249156347558	0.6667592602480052	0	0	0	-6.758995743260849	-2.741740132235196	0.5248632908040728	20.83847998449244	-0.2808745455451637	2.743579147371459	44.35571372963702	133.2072557641906	0	0	61.74547108888907	-13.01019296450591	24.81946715113095	54.71371754985876	73.85299566868942	0	0
6.299999999999954	-6.517354613146972	-3.492204417964558	24.04815862032418	0	0.9399999999999999	0	33.08297907128284	-10.77751197003058	-9.714313923792627	38.20872184367853	0.6668679991508685	0	0	0	33.08297907128284	-10.77751197003058	-9.714313923792627	38.20872184367853	0.6668679991508685	0	0	0	-6.744079891571752	-2.749430754776373	0.3880507327948425	20.76658582209051	-0.3183337825296867	2.742762433922742	44.38993282746997	133.129715647906	0	0	61.41179130605295	-12.98178922846428	24.62705646772135	56.63694543327708	74.81850179295758	0	0
6.319999999999953	-6.500689355511418	-3.506082925448302	24.34480703710042	0	0.9399999999999999	0	33.08744549826091	-10.776539065603	-9.714544818067319	38.21319980005486	0.6669461542333961	0	0	0	33.08744549826091	-10.776539065603	-9.714544818067319	38.21319980005486	0.6669461542333961	0	0	0	-6.747478539745445	-2.739819190435391	0.1903697212140154	20.72248204582253	-0.3648166547896602	2.743123321088223	44.42301273916957	133.0427376704482	0	0	60.69125433494212	-13.04290649440982	23.98281943720454	59.1624178283077	76.24032034201548	0	0
6.339999999999953	-6.468558723649627	-3.502509724209335	24.31064090686382	0	0.9399999999999999	0	33.0938045032642	-10.77514807367292	-9.714874463096846	38.21954944439393	0.6670569764334434	0	0	0	33.0938045032642	-10.77514807367292	-9.714874463096846	38.21954944439393	0.6670569764334434	0	0	0	-6.713862678966494	-2.758804948318768	0.2563000129775974	20.6163002073234	-0.3808510074578734	2.722906788290016	44.46554709776044	133.0105128615294	0	0	60.60296381982762	-12.98932323476776	23.8563762283356	61.04914133353328	77.35616459755785	0	0
6.359999999999952	-6.425942206793557	-3.506159787418293	24.51788925914738	0	0.9399999999999999	0	33.09882359622511	-10.7740422645595	-9.715135919363339	38.22452332439	0.667143787015974	0	0	0	33.09882359622511	-10.7740422645595	-9.715135919363339	38.22452332439	0.667143787015974	0	0	0	-6.68251044733786	-2.764430604069199	0.1500973680433539	20.50242136322102	-0.3911548588806947	2.606202436287587	44.50359652974817	133.0189563500656	0	0	59.8577747400209	-13.09158972770519	23.18709969301001	62.77010404453749	78.40387898569873	0	0
6.379999999999952	-6.386523531348799	-3.508473230453302	24.54109749913096	0	0.9399999999999999	0	33.11434693219146	-10.77065789088253	-9.715939818848936	38.23998594771709	0.6674136607040275	0	0	0	33.11434693219146	-10.77065789088253	-9.715939818848936	38.23998594771709	0.6674136607040275	0	0	0	-6.646601821711364	-2.78747757287681	0.2019080958603195	20.40274674056146	-0.3898965257581212	2.500069183235329	44.53193110171578	133.0292884801406	0	0	59.39878392083225	-13.06401401162088	22.78492629158067	67.20728798374415	80.98338121729043	0	0
6.399999999999952	-6.360285236831835	-3.516165621547787	24.66167381225912	0	0.9399999999999999	0	33.12733987463364	-10.76789131251162	-9.716602992760489	38.25315560692182	0.6676435146185155	0	0	0	33.12733987463364	-10.76789131251162	-9.716602992760489	38.25315560692182	0.6676435146185155	0	0	0	-6.630726417717648	-2.790722807517773	0.1231959202427602	20.32947856129378	-0.4057840222966379	2.515175159302748	44.57355932735233	133.0064521700688	0	0	58.96027636281291	-13.0554063849297	22.58048670731496	69.77725288718329	82.48420314060573	0	0
6.419999999999951	-6.360629504748293	-3.514048283377883	24.69119647421103	0	0.9399999999999999	0	33.14175187846305	-10.76482423022403	-9.717338591863721	38.26774580183918	0.6678981615583313	0	0	0	33.14175187846305	-10.76482423022403	-9.717338591863721	38.26774580183918	0.6678981615583313	0	0	0	-6.632952714708755	-2.781310918513428	0.09026218342235047	20.29712789455512	-0.4503976744845952	2.610833270459461	44.62118924512858	132.9224184775838	0	0	58.53083364945668	-13.02482577839739	22.34418862800864	72.42733605470356	84.11170376187897	0	0
6.439999999999951	-6.334523144856383	-3.525416037944226	24.67412111781517	0	0.9399999999999999	0	33.14940542074142	-10.76316271263571	-9.717734081095255	38.27537632647936	0.6680313393369569	0	0	0	33.14940542074142	-10.76316271263571	-9.717734081095255	38.27537632647936	0.6680313393369569	0	0	0	-6.610133353483894	-2.813292621923187	0.1687307299435504	20.23696255626484	-0.4444404275453044	2.537652353523758	44.62033254514778	132.993221053489	0	0	58.4535719310979	-12.91867595032122	22.29637527322112	74.6963035462083	85.41956204874808	0	0
6.45999999999995	-6.313306951665745	-3.543669972280253	24.84716067845671	0	0.9399999999999999	0	33.15568108172651	-10.76183589804188	-9.718052947758864	38.2817748628817	0.6681430148644866	0	0	0	33.15568108172651	-10.76183589804188	-9.718052947758864	38.2817748628817	0.6681430148644866	0	0	0	-6.604426938642013	-2.820046759390434	0.04418576935718228	20.19183509303882	-0.4447008495197255	2.476401405930941	44.61678493632594	133.0088293303728	0	0	58.09593984357705	-12.89144781215311	22.09313386040728	76.16136880742198	86.34400782630317	0	0
6.47999999999995	-6.296346129969202	-3.584343757728776	24.98643759097818	0	0.9399999999999999	0	33.16195822466326	-10.7604978308521	-9.718373637382618	38.28812363250528	0.6682538217978684	0	0	0	33.16195822466326	-10.7604978308521	-9.718373637382618	38.28812363250528	0.6682538217978684	0	0	0	-6.608701526568558	-2.852155955012381	-0.0008380095551225811	20.15533507840179	-0.4356344765986821	2.403043463134956	44.63592582660052	132.9668728616351	0	0	57.80835241006155	-12.77717180166539	21.87505842713117	79.74436789617607	88.58603560243455	0	0
6.499999999999949	-6.267188718336374	-3.596559759206156	25.14258644097928	0	0.9399999999999999	0	33.16727291249575	-10.75935339710861	-9.718647026367766	38.29344251211975	0.6683466537596582	0	0	0	33.16727291249575	-10.75935339710861	-9.718647026367766	38.29344251211975	0.6683466537596582	0	0	0	-6.592136994802792	-2.863489789720941	-0.08419555316173238	20.09289320779962	-0.4544265959260967	2.416873060137808	44.63873933491642	132.9280982123218	0	0	57.58418761673707	-12.77126536296899	21.76638161564338	81.06838595484099	89.30290207722949	0	0
6.519999999999949	-6.198020803555355	-3.638211446725895	25.32302549104491	0	0.9399999999999999	0	33.17376825087359	-10.75795637367301	-9.718980914606899	38.29994784434506	0.668460193225926	0	0	0	33.17376825087359	-10.75795637367301	-9.718980914606899	38.29994784434506	0.668460193225926	0	0	0	-6.546695295347006	-2.927139408338185	-0.07827752024316514	20.00192047228204	-0.3711534054960011	2.196109508366401	44.61638229953557	133.0033260815568	0	0	57.37275202548501	-12.63044320427089	21.78679277841507	84.51295338583304	91.37547640635979	0	0
6.539999999999949	-6.194683509389646	-3.635746751630074	25.41274020283443	0	0.9399999999999999	0	33.17942494745024	-10.75674451957608	-9.719271005641207	38.30562820490558	0.6685593342204075	0	0	0	33.17942494745024	-10.75674451957608	-9.719271005641207	38.30562820490558	0.6685593342204075	0	0	0	-6.548042705515208	-2.913027929225333	-0.1650041233688023	19.96289133919414	-0.4689150427347747	2.362091315507513	44.65504689150772	132.8711426638903	0	0	57.31590377538557	-12.68253974064835	21.79600534094444	85.66419410399877	91.99491698840839	0	0
6.559999999999948	-6.203846851112761	-3.653148570753296	25.32430315329121	0	0.9399999999999999	0	33.18764690874027	-10.75497180665443	-9.71969449669265	38.3138280259084	0.6687024480949809	0	0	0	33.18764690874027	-10.75497180665443	-9.71969449669265	38.3138280259084	0.6687024480949809	0	0	0	-6.561543443607519	-2.934866178170311	-0.0762846107855598	19.99860879738042	-0.4519771393962633	2.350675112474661	44.63244270434016	132.9119469338226	0	0	57.27568626444031	-12.65015138969595	21.8514526482256	88.7919032052575	94.00666379727228	0	0
